<svg width="512" height="512" viewBox="0 0 512 512" fill="none" xmlns="http://www.w3.org/2000/svg">
<g clip-path="url(#clip0_4_88)">
<path d="M117.781 424.533H231.317L306.389 499.52C310.424 503.577 315.221 506.796 320.504 508.993C325.787 511.19 331.452 512.32 337.173 512.32C340.938 512.314 344.686 511.834 348.331 510.891C355.696 509.032 362.441 505.265 367.886 499.969C373.332 494.673 377.286 488.036 379.349 480.725L511.765 30.4L117.781 424.533Z" fill="white"/>
<path d="M87.1894 394.667L481.536 0.255981L31.5307 132.971C24.2035 135.054 17.5484 139.018 12.2257 144.467C6.903 149.917 3.09767 156.664 1.18725 164.038C-0.723174 171.412 -0.672298 179.158 1.33483 186.507C3.34196 193.855 7.23558 200.551 12.6294 205.931L87.1894 280.427V394.667Z" fill="white"/>
</g>
<defs>
<clipPath id="clip0_4_88">
<rect width="512" height="512" fill="white"/>
</clipPath>
</defs>
</svg>
