<svg width="512" height="512" viewBox="0 0 512 512" fill="none" xmlns="http://www.w3.org/2000/svg">
<g clip-path="url(#clip0_4_61)">
<path d="M192 85.3333C192 38.208 263.637 0 352 0C440.363 0 512 38.208 512 85.3333C512 132.459 440.363 170.667 352 170.667C263.637 170.667 192 132.459 192 85.3333ZM352 213.333C330.091 213.333 309.312 210.88 290.325 206.613C261.333 184.875 213.824 170.667 160 170.667C71.6373 170.667 0 208.875 0 256C0 303.125 71.6373 341.333 160 341.333C248.363 341.333 320 303.125 320 256C320 255.381 319.851 254.784 319.829 254.165H320V298.667C320 345.792 248.363 384 160 384C71.6373 384 0 345.792 0 298.667V341.333C0 388.459 71.6373 426.667 160 426.667C248.363 426.667 320 388.459 320 341.333V384C320 431.125 248.363 469.333 160 469.333C71.6373 469.333 0 431.125 0 384V426.667C0 473.792 71.6373 512 160 512C248.363 512 320 473.792 320 426.667V424.96C330.347 426.069 341.035 426.667 352 426.667C440.363 426.667 512 388.459 512 341.333V298.667C512 343.872 446.037 380.779 362.667 383.723V341.056C446.037 338.112 512 301.227 512 256V213.333C512 258.539 446.037 295.445 362.667 298.389V255.723C446.037 252.779 512 215.893 512 170.667V128C512 175.125 440.363 213.333 352 213.333Z" fill="white"/>
</g>
<defs>
<clipPath id="clip0_4_61">
<rect width="512" height="512" fill="white"/>
</clipPath>
</defs>
</svg>
