<svg width="512" height="512" viewBox="0 0 512 512" fill="none" xmlns="http://www.w3.org/2000/svg">
<g clip-path="url(#clip0_4_94)">
<path d="M490.667 341.333C487.365 341.333 484.108 340.566 481.152 339.093L438.485 317.76C433.422 315.231 429.57 310.794 427.777 305.425C425.985 300.056 426.399 294.195 428.928 289.131C431.457 284.067 435.894 280.215 441.263 278.423C446.632 276.63 452.494 277.044 457.557 279.573L500.224 300.907C504.53 303.053 507.985 306.592 510.026 310.949C512.068 315.306 512.576 320.226 511.469 324.908C510.362 329.591 507.705 333.762 503.928 336.743C500.152 339.725 495.478 341.343 490.667 341.333ZM457.536 147.2L500.203 125.867C505.267 123.338 509.118 118.9 510.911 113.531C512.703 108.162 512.289 102.301 509.76 97.2373C507.231 92.1735 502.794 88.3217 497.425 86.5293C492.056 84.737 486.195 85.1509 481.131 87.68L438.464 109.013C433.4 111.542 429.548 115.98 427.756 121.349C425.964 126.718 426.378 132.579 428.907 137.643C431.436 142.707 435.873 146.558 441.242 148.351C446.611 150.143 452.472 149.729 457.536 147.2ZM512 213.333C512 207.675 509.752 202.249 505.752 198.248C501.751 194.248 496.325 192 490.667 192H448C442.342 192 436.916 194.248 432.915 198.248C428.914 202.249 426.667 207.675 426.667 213.333C426.667 218.991 428.914 224.418 432.915 228.418C436.916 232.419 442.342 234.667 448 234.667H490.667C496.325 234.667 501.751 232.419 505.752 228.418C509.752 224.418 512 218.991 512 213.333ZM384 405.333V21.3333C384 15.6754 381.752 10.2492 377.752 6.24839C373.751 2.24761 368.325 0 362.667 0C357.009 0 351.583 2.24761 347.582 6.24839C343.581 10.2492 341.333 15.6754 341.333 21.3333C341.333 84.2453 286.229 106.667 234.667 106.667H85.3333C62.7015 106.667 40.9967 115.657 24.9936 131.66C8.99045 147.663 0 169.368 0 192L0 234.667C0 257.298 8.99045 279.003 24.9936 295.006C40.9967 311.01 62.7015 320 85.3333 320H234.667C286.229 320 341.333 342.421 341.333 405.333C341.333 410.991 343.581 416.418 347.582 420.418C351.583 424.419 357.009 426.667 362.667 426.667C368.325 426.667 373.751 424.419 377.752 420.418C381.752 416.418 384 410.991 384 405.333ZM174.635 362.667H85.3333C75.4008 362.627 65.5067 361.431 55.8507 359.104L109.184 478.187C113.663 488.252 120.964 496.802 130.202 502.803C139.441 508.804 150.221 511.999 161.237 512C170.002 511.988 178.625 509.783 186.319 505.586C194.014 501.389 200.535 495.332 205.29 487.969C210.045 480.606 212.881 472.17 213.541 463.43C214.2 454.69 212.662 445.924 209.067 437.931L174.635 362.667Z" fill="white"/>
</g>
<defs>
<clipPath id="clip0_4_94">
<rect width="512" height="512" fill="white"/>
</clipPath>
</defs>
</svg>
