<svg width="512" height="512" viewBox="0 0 512 512" fill="none" xmlns="http://www.w3.org/2000/svg">
<g clip-path="url(#clip0_4_91)">
<path d="M25.0027 407.872C8.99846 423.871 0.00483306 445.573 0 468.203L0 512H43.7973C66.4273 511.995 88.1286 503.001 104.128 486.997L388.779 202.347L309.653 123.221L25.0027 407.872Z" fill="white"/>
<path d="M493.76 18.24C488.565 13.0396 482.396 8.91421 475.606 6.09951C468.816 3.28482 461.537 1.83606 454.187 1.83606C446.836 1.83606 439.558 3.28482 432.767 6.09951C425.977 8.91421 419.808 13.0396 414.613 18.24L339.819 93.056L418.944 172.181L493.76 97.3866C498.96 92.1917 503.086 86.0228 505.9 79.2325C508.715 72.4423 510.164 65.1638 510.164 57.8133C510.164 50.4628 508.715 43.1843 505.9 36.394C503.086 29.6038 498.96 23.4349 493.76 18.24Z" fill="white"/>
</g>
<defs>
<clipPath id="clip0_4_91">
<rect width="512" height="512" fill="white"/>
</clipPath>
</defs>
</svg>
