<svg width="450" height="512" viewBox="0 0 450 512" fill="none" xmlns="http://www.w3.org/2000/svg">
<path d="M319.037 86.08C293.437 64.3413 266.984 41.8773 240.232 15.1467L225 0L210.067 15.168C161.981 63.424 139.24 137.536 129.384 181.995C121.821 170.284 116.208 157.423 112.765 143.915L103.656 108.992L77.3518 133.675C31.2932 176.939 0.551848 219.84 0.551848 288.533C0.108993 338.102 16.2438 386.397 46.3927 425.745C76.5416 465.093 118.975 493.238 166.952 505.707C179.007 508.761 191.283 510.865 203.667 512C176.814 506.996 152.554 492.765 135.083 471.768C117.611 450.771 108.027 424.328 107.987 397.013C107.987 349.013 136.936 324.48 170.451 295.851C182.419 285.675 196.051 274.133 209.811 260.288L225 245.184L240.104 260.288C252.392 272.576 264.68 282.987 276.563 293.099C310.184 321.621 341.928 348.565 341.928 397.013C341.894 424.221 332.386 450.567 315.039 471.527C297.692 492.487 273.588 506.752 246.867 511.872C302.345 506.489 353.829 480.635 391.279 439.351C428.729 398.068 449.459 344.315 449.427 288.576C449.427 196.8 388.989 145.493 319.037 86.08Z" fill="white"/>
</svg>
