<svg width="512" height="419" viewBox="0 0 512 419" fill="none" xmlns="http://www.w3.org/2000/svg">
<path d="M485.675 46.408C477.879 43.1608 469.294 42.3072 461.012 43.9561C452.729 45.6049 445.125 49.6815 439.168 55.6667L384 110.835L286.165 13C278.164 5.00127 267.314 0.507812 256 0.507813C244.686 0.507812 233.836 5.00127 225.835 13L128 110.835L72.832 55.6667C66.865 49.7015 59.2633 45.6394 50.988 43.9938C42.7127 42.3483 34.1353 43.1932 26.3401 46.4218C18.5449 49.6504 11.8819 55.1177 7.19353 62.1325C2.50513 69.1473 0.00180157 77.3947 0 85.832L0 311.667C0.0338743 339.946 11.2828 367.058 31.2794 387.054C51.2759 407.051 78.3873 418.3 106.667 418.333H405.333C433.613 418.3 460.724 407.051 480.721 387.054C500.717 367.058 511.966 339.946 512 311.667V85.832C512.002 77.394 509.502 69.1448 504.816 62.1275C500.131 55.1102 493.469 49.6398 485.675 46.408Z" fill="white"/>
</svg>
