<svg width="509" height="294" viewBox="0 0 509 294" fill="none" xmlns="http://www.w3.org/2000/svg">
<path d="M304.277 2.93338C301.477 6.80004 301.477 32.1334 304.144 74C305.211 90.8 306.144 112 306.144 120.933C306.144 135.6 306.411 137.2 308.677 138C312.144 139.067 315.077 137.6 316.011 134.267C316.411 132.667 316.811 125.2 316.811 117.6C316.811 110.133 317.211 104 317.611 104C318.677 104 336.944 116.667 352.411 128.4C365.344 138 369.077 138.933 370.944 133.067C372.011 129.467 369.744 127.6 342.544 108.4C331.344 100.533 322.144 93.8667 322.144 93.4667C322.144 92.9334 328.144 89.2 335.611 84.8C360.544 70.2667 364.811 67.0667 364.811 63.4667C364.811 58.4 360.811 56.9334 356.011 60.1334C347.344 66 316.544 84.2667 316.144 83.7334C315.077 82.6667 312.811 41.2 312.811 22.8C312.811 3.33338 312.144 3.34749e-05 308.011 3.34749e-05C307.077 3.34749e-05 305.344 1.33338 304.277 2.93338Z" fill="black"/>
<path d="M69.0775 13.6C68.2775 14.4 67.4775 16.8 67.4775 18.6667C67.4775 20.5333 72.0108 40.9333 77.4775 64C82.8108 87.0667 88.0108 110.533 88.9441 116C90.5441 126.267 93.6108 131.333 97.4775 129.733C102.277 128 130.277 79.4667 139.611 56.8L144.544 44.8L145.877 50.1333C146.544 52.9333 149.077 63.4667 151.344 73.3333C157.744 100.133 168.411 125.333 173.477 125.333C176.144 125.333 181.344 119.6 188.811 108.4C201.077 89.8667 206.811 70.4 210.144 36.2667C211.877 18.8 211.344 16 206.011 16C202.277 16 201.077 19.8667 198.811 41.3333C195.477 71.4667 190.011 89.2 179.077 105.2L175.077 111.067L171.877 104C167.077 92.9333 162.811 77.7333 156.144 47.6C148.677 13.8667 148.544 13.3333 144.277 13.3333C140.144 13.3333 138.811 15.8667 137.611 25.3333C135.477 42.6667 121.077 76.1333 105.477 100L98.9441 110L95.2108 94C93.2108 85.2 88.4108 64.8 84.8108 48.6667C81.0775 32.5333 77.2108 17.8667 76.4108 16C74.5441 12.1333 71.4775 11.2 69.0775 13.6Z" fill="black"/>
<path d="M393.744 52.5334C391.078 53.4667 386.678 56 384.011 58C378.811 62 371.478 71.4667 371.478 74.2667C371.478 75.2 370.278 77.0667 368.811 78.2667C366.011 80.6667 365.211 86 367.478 87.3334C368.278 87.7334 368.811 89.7334 368.811 91.7334C368.944 96.9334 374.411 109.6 379.344 115.867C384.278 122.133 397.744 129.333 404.544 129.333C412.678 129.333 419.611 126.267 426.944 119.6C434.144 113.067 435.478 109.867 432.544 106.933C429.744 104.133 426.811 105.2 421.478 110.667C412.278 120 402.144 120.933 391.478 113.2C385.878 109.067 379.478 98.2667 379.478 92.5334C379.478 90 380.011 89.8667 387.211 90.8C407.344 93.3334 420.944 91.4667 427.478 85.3334C430.811 82.2667 431.478 80.5334 431.478 75.7334C431.344 58.9334 410.811 46.2667 393.744 52.5334ZM412.011 63.2C417.344 65.4667 420.811 70 420.811 74.9334C420.811 78.1334 420.011 78.8 415.211 80.1334C408.944 81.7334 383.744 80.8 381.744 78.8C380.011 77.0667 386.144 68.5334 392.011 64.8C398.011 60.9334 405.078 60.2667 412.011 63.2Z" fill="black"/>
<path d="M249.877 54.8C241.744 56.6667 228.544 63.3334 222.544 68.5334C216.144 74.1334 211.477 82.9334 211.477 89.4667C211.611 96.1334 218.411 112.133 222.544 115.2C227.077 118.533 239.077 119.467 249.211 117.333L256.811 115.867V110V104.267L250.544 106.133C247.211 107.2 240.944 108 236.677 108C228.944 108 228.811 108 226.144 102.667C222.011 94.5334 221.477 86.8 224.677 81.8667C230.944 71.7334 248.011 64.1334 264.144 64C274.677 64 281.077 66.5334 285.211 72.2667C287.611 75.4667 287.744 76.5334 286.277 81.2C285.344 84.5334 282.677 88.4 278.811 91.7334C273.344 96.5334 272.944 97.3334 273.744 101.733C274.144 104.533 274.944 106.667 275.477 106.667C278.011 106.667 290.544 95.2 293.477 90.1334C301.611 76.2667 294.677 60.4 278.277 54.8C273.077 53.0667 257.077 53.0667 249.877 54.8Z" fill="black"/>
<path d="M262.277 99.8667C260.677 100.933 260.544 106.4 261.077 133.067L261.877 165.067L255.344 165.6C241.344 166.933 218.677 182 212.544 193.867C208.411 201.867 208.811 211.2 213.611 219.867C220.011 231.733 228.144 235.6 249.744 236.933L263.477 237.733V242C263.477 247.867 266.411 250.267 271.077 248.133L274.544 246.533L273.611 200.933C271.744 116.667 271.077 101.333 268.811 100C266.277 98.4 264.677 98.4 262.277 99.8667ZM262.677 180.933C263.077 183.733 263.477 195.2 263.477 206.533V227.067L250.144 226.267C234.544 225.333 226.011 222.267 223.077 216.4C216.811 204.133 220.011 195.067 234.011 186C244.677 179.067 251.477 176.267 257.611 176.133C261.477 176 261.877 176.4 262.677 180.933Z" fill="black"/>
<path d="M28.8108 154.533C24.8108 155.867 19.2108 158 16.4108 159.333C11.4775 161.867 11.4775 161.867 9.34414 158.933C7.34414 156 1.61081 154.933 0.277472 157.2C-0.255862 157.867 0.0108049 176.667 0.810805 198.933C1.47747 221.067 2.54414 250.267 2.94414 263.733C3.61081 283.867 4.14414 288.533 6.01081 290.933C7.74414 292.933 9.07747 293.467 11.3441 292.667L14.2775 291.733L13.3441 256.4L12.4108 221.067L15.6108 222C20.5441 223.6 26.5441 223.067 35.7441 220C54.5441 213.733 65.4775 202.133 65.3441 188.667C65.2108 176.667 57.4775 160.8 48.9441 155.067C43.6108 151.467 38.6775 151.333 28.8108 154.533ZM48.4108 169.2C52.6775 175.467 55.8775 187.067 54.8108 192C53.4775 198.267 48.4108 203.2 39.6108 207.2C28.9441 212 19.3441 213.067 14.8108 210.133C11.4775 208 11.4775 207.733 11.4775 190.667V173.333L17.0775 170.533C26.8108 165.6 32.0108 164.133 38.8108 164.4C44.6775 164.667 45.7441 165.2 48.4108 169.2Z" fill="black"/>
<path d="M385.477 161.467C366.411 168.133 358.011 182.533 366.811 193.067C371.877 199.067 379.477 201.467 397.077 202.667C413.344 203.733 417.877 205.2 420.811 210.667C423.077 214.933 421.877 220.133 418.011 223.067C415.877 224.533 410.411 226.133 404.411 227.067C390.411 229.067 381.077 226.933 373.344 219.733C367.211 214.133 364.677 213.867 362.277 218.533C361.077 220.8 361.477 222 364.944 226C373.477 235.733 389.477 240.133 406.011 237.333C427.611 233.733 437.211 222.267 430.944 207.6C426.677 197.6 418.011 193.6 397.344 192C380.544 190.667 375.077 188.8 374.411 184.267C372.944 173.867 396.544 166 413.344 171.333C419.344 173.2 421.211 173.333 422.811 172C429.344 166.667 418.944 159.867 402.811 159.067C395.744 158.667 391.477 159.333 385.477 161.467Z" fill="black"/>
<path d="M461.478 161.467C442.411 168.133 434.011 182.533 442.811 193.067C447.878 199.067 455.478 201.467 473.078 202.667C489.344 203.733 493.878 205.2 496.811 210.667C499.078 214.933 497.878 220.133 494.011 223.067C491.878 224.533 486.411 226.133 480.411 227.067C466.411 229.067 457.078 226.933 449.344 219.733C443.211 214.133 440.678 213.867 438.278 218.533C437.078 220.8 437.478 222 440.944 226C449.478 235.733 465.478 240.133 482.011 237.333C503.611 233.733 513.211 222.267 506.944 207.6C502.678 197.6 494.011 193.6 473.344 192C456.544 190.667 451.078 188.8 450.411 184.267C448.944 173.867 472.544 166 489.344 171.333C495.344 173.2 497.211 173.333 498.811 172C505.344 166.667 494.944 159.867 478.811 159.067C471.744 158.667 467.478 159.333 461.478 161.467Z" fill="black"/>
<path d="M131.211 162.8C129.877 163.467 128.811 165.067 128.811 166.267C128.811 167.6 128.011 168 126.677 167.467C119.877 164.933 111.744 163.733 102.411 164.133C89.4775 164.8 84.6775 167.867 78.4108 179.733C70.5441 194.4 68.4108 210.267 73.0775 219.333C77.6108 228.267 90.0108 234.667 102.544 234.667C108.811 234.667 120.011 232.4 126.411 230C128.011 229.333 128.677 230 129.077 232.267C129.611 236.267 137.477 237.6 138.677 233.733C139.077 232.4 139.611 216.533 139.744 198.533C140.011 172.267 139.744 165.333 138.277 163.6C136.277 161.067 134.411 160.8 131.211 162.8ZM119.344 176.133C122.144 176.933 125.611 178.667 127.344 179.867C130.144 182 130.277 182.533 129.344 199.6L128.411 217.2L122.144 219.867C108.677 225.733 92.9441 225.2 85.7441 218.667C81.7441 215.2 81.4775 214.267 81.4775 206.4C81.6108 196.4 85.7441 184.8 91.4775 178.667C94.9441 174.933 95.8775 174.667 104.811 174.667C110.144 174.667 116.677 175.333 119.344 176.133Z" fill="black"/>
<path d="M343.744 162.933C342.811 163.867 342.144 165.333 342.144 166.267C342.144 168.4 342.811 168.4 334.944 166C326.678 163.467 310.144 163.467 304.278 165.867C294.944 169.733 285.078 187.733 283.878 203.467C283.211 210.4 283.744 212.933 286.544 219.2C289.744 226 290.811 227.067 297.744 230.4C304.544 233.6 306.944 234 317.478 233.867C324.811 233.733 331.744 232.8 335.344 231.467C342.544 228.8 341.878 228.8 342.411 232.267C342.944 236.267 349.344 237.333 351.211 233.733C351.878 232.4 352.544 216.533 352.678 198.533C352.944 169.867 352.678 165.333 350.811 163.467C348.278 160.933 345.878 160.8 343.744 162.933ZM335.611 177.467L342.144 180.267V194.667C342.144 215.067 341.744 216.4 334.411 220.133C326.411 224.267 308.011 224.667 301.344 221.067C292.944 216.533 291.878 203.333 298.678 188.667C304.544 175.733 306.144 174.667 318.411 174.667C326.278 174.667 330.678 175.467 335.611 177.467Z" fill="black"/>
<path d="M158.411 164.267C157.611 165.067 156.811 168.4 156.811 171.333C156.811 174.4 156.011 183.333 154.944 191.467C153.877 199.467 152.544 212 152.011 219.333C151.477 226.667 150.544 234 150.011 235.733C149.077 238 149.477 239.333 151.477 241.333C157.611 247.467 161.344 238.933 163.344 213.867C164.144 204.267 165.477 193.333 166.277 189.467C168.011 181.467 170.144 180 180.944 180C187.344 180 187.744 180.133 189.611 184.8C191.077 188.4 191.877 197.067 192.411 216.267C193.077 238.267 193.611 243.333 195.477 245.6C197.344 248 198.011 248.133 200.811 246.667L203.877 245.067L203.077 217.467C202.677 202.4 201.611 187.6 200.811 184.667C198.677 177.867 190.411 169.467 185.344 169.067C183.211 169.067 178.544 169.067 174.811 169.2C168.944 169.467 168.011 169.2 166.811 166.4C165.344 162.933 160.944 161.733 158.411 164.267Z" fill="black"/>
</svg>
